<svg width="256" height="45" viewBox="0 0 256 45" fill="none" xmlns="http://www.w3.org/2000/svg">
<path d="M27.1016 21.8047V17.4688C27.1016 15.5938 27.1562 13.8906 27.2656 12.3594C27.3906 10.8125 27.6562 9.38281 28.0625 8.07031C26.8281 7.88281 25.5625 7.66406 24.2656 7.41406C22.9688 7.14844 21.6953 6.89844 20.4453 6.66406C19.2109 6.42969 18.0312 6.23438 16.9062 6.07812C15.7969 5.90625 14.7969 5.82031 13.9062 5.82031C12.7031 5.82031 11.7031 5.92187 10.9062 6.125C10.1094 6.3125 9.46875 6.57031 8.98438 6.89844C8.5 7.22656 8.15625 7.60937 7.95312 8.04688C7.76562 8.46875 7.67188 8.92187 7.67188 9.40625C7.67188 9.89063 7.78125 10.3359 8 10.7422C8.23438 11.1484 8.5625 11.5078 8.98438 11.8203C9.40625 12.1172 9.90625 12.3516 10.4844 12.5234C11.0781 12.6953 11.7344 12.7812 12.4531 12.7812C13.25 12.7812 13.9531 12.6953 14.5625 12.5234C15.1875 12.3359 15.7188 12.1328 16.1562 11.9141C16.6719 11.6641 17.125 11.375 17.5156 11.0469L17.9844 12.0547C17.5 12.4141 16.9688 12.7344 16.3906 13.0156C15.8906 13.2656 15.3047 13.4922 14.6328 13.6953C13.9766 13.8828 13.25 13.9766 12.4531 13.9766C11.4062 13.9766 10.4766 13.8359 9.66406 13.5547C8.86719 13.2734 8.19531 12.8984 7.64844 12.4297C7.10156 11.9453 6.6875 11.3828 6.40625 10.7422C6.125 10.1016 5.98438 9.42188 5.98438 8.70312C5.98438 7.9375 6.11719 7.19531 6.38281 6.47656C6.63281 5.75781 7.0625 5.11719 7.67188 4.55469C8.26562 3.99219 9.05469 3.54688 10.0391 3.21875C11.0234 2.875 12.2344 2.70312 13.6719 2.70312C15 2.70312 16.3281 2.8125 17.6562 3.03125C19 3.23438 20.3203 3.49219 21.6172 3.80469C22.9297 4.10156 24.2031 4.42969 25.4375 4.78906C26.6875 5.13281 27.8828 5.44531 29.0234 5.72656C29.6953 4.49219 30.5312 3.50781 31.5312 2.77344C32.5312 2.02344 33.6172 1.64844 34.7891 1.64844C35.2891 1.64844 35.7344 1.73438 36.125 1.90625C36.5156 2.0625 36.8438 2.27344 37.1094 2.53906C37.375 2.80469 37.5703 3.11719 37.6953 3.47656C37.8359 3.82031 37.9062 4.1875 37.9062 4.57812C37.9062 5.23438 37.75 5.80469 37.4375 6.28906C37.1406 6.75781 36.7266 7.15625 36.1953 7.48438C35.6641 7.79687 35.0391 8.03125 34.3203 8.1875C33.6016 8.32812 32.8281 8.39844 32 8.39844C31.8125 8.39844 31.6172 8.39844 31.4141 8.39844C31.2266 8.39844 31.0391 8.38281 30.8516 8.35156C30.7266 9.13281 30.625 10.0078 30.5469 10.9766C30.4844 11.9297 30.4531 13.0078 30.4531 14.2109V21.8047H33.5938L33.1016 23.2344H30.4531V29C30.4531 30.3125 30.4375 31.4609 30.4062 32.4453C30.375 33.4141 30.2891 34.2812 30.1484 35.0469C30.0078 35.7969 29.7969 36.4766 29.5156 37.0859C29.2344 37.6797 28.8438 38.2656 28.3438 38.8438C27.4844 39.8281 26.2891 40.6328 24.7578 41.2578C23.2266 41.8828 21.3672 42.1953 19.1797 42.1953C17.8359 42.1953 16.5547 42.0078 15.3359 41.6328C14.1172 41.2578 13.0469 40.7344 12.125 40.0625C11.2031 39.3906 10.4688 38.5859 9.92188 37.6484C9.375 36.7109 9.10156 35.6719 9.10156 34.5312C9.10156 33.6875 9.23438 32.9297 9.5 32.2578C9.78125 31.5859 10.1406 30.9922 10.5781 30.4766C11.0156 29.9453 11.4922 29.4922 12.0078 29.1172C12.5391 28.7422 13.0547 28.4297 13.5547 28.1797C14.0547 27.9297 14.5078 27.7344 14.9141 27.5938C15.3203 27.4531 15.625 27.3594 15.8281 27.3125L16.2969 28.2734C15.9375 28.4609 15.5312 28.7188 15.0781 29.0469C14.6406 29.3594 14.2266 29.7656 13.8359 30.2656C13.4453 30.75 13.1172 31.3438 12.8516 32.0469C12.5859 32.75 12.4531 33.5781 12.4531 34.5312C12.4531 35.5469 12.625 36.4609 12.9688 37.2734C13.3125 38.0703 13.7891 38.75 14.3984 39.3125C15.0234 39.8594 15.7578 40.2812 16.6016 40.5781C17.4609 40.8594 18.3984 41 19.4141 41C20.5547 41 21.5938 40.8438 22.5312 40.5312C23.4844 40.2188 24.2969 39.6953 24.9688 38.9609C25.6406 38.2266 26.1641 37.25 26.5391 36.0312C26.9141 34.8125 27.1016 33.2969 27.1016 31.4844V23.2344H22.5547L23.0234 21.8047H27.1016ZM34.7891 2.9375C34.0859 2.9375 33.4375 3.19531 32.8438 3.71094C32.25 4.21094 31.7578 5.07031 31.3672 6.28906C31.8516 6.36719 32.3203 6.42969 32.7734 6.47656C33.2266 6.52344 33.6562 6.54688 34.0625 6.54688C34.4844 6.54688 34.8438 6.49219 35.1406 6.38281C35.4531 6.25781 35.7031 6.10156 35.8906 5.91406C36.0781 5.72656 36.2188 5.51562 36.3125 5.28125C36.4062 5.04688 36.4531 4.8125 36.4531 4.57812C36.4531 4.125 36.2969 3.74219 35.9844 3.42969C35.6719 3.10156 35.2734 2.9375 34.7891 2.9375ZM36.9688 30.6875L36.7344 31.1562L36.5 31.6484L35.5391 30.9219L35.7734 30.4297C36.1641 29.6328 36.4844 28.8359 36.7344 28.0391C37 27.2266 37.2109 26.4688 37.3672 25.7656C37.5391 25.0625 37.6797 24.4453 37.7891 23.9141C37.8984 23.3828 38.0078 23 38.1172 22.7656C38.2109 22.5781 38.3438 22.4297 38.5156 22.3203C38.7031 22.1953 38.8906 22.0938 39.0781 22.0156C39.2812 21.9375 39.4688 21.8828 39.6406 21.8516C39.8281 21.8203 39.9609 21.8047 40.0391 21.8047C40.3828 21.8047 40.6094 21.875 40.7188 22.0156C40.8438 22.1562 40.9062 22.4062 40.9062 22.7656C40.9062 22.9375 40.8672 23.3672 40.7891 24.0547C40.7266 24.7266 40.6484 25.5781 40.5547 26.6094C40.4766 27.625 40.3984 28.7734 40.3203 30.0547C40.2578 31.3203 40.2266 32.6328 40.2266 33.9922C40.2266 34.9766 40.2734 35.7578 40.3672 36.3359C40.4609 36.8984 40.5781 37.3203 40.7188 37.6016C40.875 37.8828 41.0391 38.0625 41.2109 38.1406C41.3984 38.2188 41.5859 38.2578 41.7734 38.2578C42.0234 38.2578 42.3047 38.1484 42.6172 37.9297C42.9297 37.7109 43.2969 37.3281 43.7188 36.7812C44.1406 36.2188 44.625 35.4688 45.1719 34.5312C45.7188 33.5781 46.3594 32.375 47.0938 30.9219L47.3516 30.4297L48.3125 31.1562L48.0547 31.6484C47.4609 32.8047 46.8672 33.9453 46.2734 35.0703C45.6953 36.1953 45.1016 37.1953 44.4922 38.0703C43.8984 38.9453 43.2969 39.6562 42.6875 40.2031C42.0781 40.7344 41.4688 41 40.8594 41C40.2188 41 39.6641 40.875 39.1953 40.625C38.7422 40.3594 38.3594 39.9297 38.0469 39.3359C37.75 38.7422 37.5234 37.9609 37.3672 36.9922C37.2266 36.0078 37.1562 34.7969 37.1562 33.3594C37.1562 32.9531 37.1562 32.5312 37.1562 32.0938C37.1562 31.6406 37.1719 31.1719 37.2031 30.6875H36.9688ZM41.7734 17C41.7734 17.5469 41.5859 18.0078 41.2109 18.3828C40.8516 18.7422 40.3984 18.9219 39.8516 18.9219C39.3203 18.9219 38.8672 18.7422 38.4922 18.3828C38.1172 18.0078 37.9297 17.5469 37.9297 17C37.9297 16.4688 38.1172 16.0156 38.4922 15.6406C38.8672 15.2656 39.3203 15.0781 39.8516 15.0781C40.3984 15.0781 40.8516 15.2656 41.2109 15.6406C41.5859 16.0156 41.7734 16.4688 41.7734 17ZM52.3906 38.0234C52.6719 38.0234 52.9922 37.8438 53.3516 37.4844C53.7266 37.1094 54.125 36.6016 54.5469 35.9609C54.9688 35.3203 55.4141 34.5703 55.8828 33.7109C56.3516 32.8516 56.8359 31.9219 57.3359 30.9219L57.5703 30.4297L58.5312 31.1562L58.2969 31.6484C57.4688 33.3047 56.7266 34.7266 56.0703 35.9141C55.4297 37.0859 54.8281 38.0547 54.2656 38.8203C53.7031 39.5703 53.1641 40.125 52.6484 40.4844C52.1484 40.8281 51.6328 41 51.1016 41C50.3984 41 49.7891 40.7734 49.2734 40.3203C48.7734 39.8516 48.3516 39.0781 48.0078 38C47.6797 36.9062 47.4375 35.4688 47.2812 33.6875C47.1094 31.9062 47.0234 29.7031 47.0234 27.0781C47.0234 23.3594 47.1797 20.1719 47.4922 17.5156C47.8047 14.8438 48.2266 12.6563 48.7578 10.9531C49.3047 9.23438 49.9297 7.97656 50.6328 7.17969C51.3516 6.36719 52.1016 5.96094 52.8828 5.96094C53.3516 5.96094 53.7422 6.15625 54.0547 6.54688C54.3828 6.92188 54.5469 7.60937 54.5469 8.60938C54.5469 9.39062 54.4844 10.2812 54.3594 11.2812C54.2344 12.2813 54.0703 13.3516 53.8672 14.4922C53.6641 15.6328 53.4219 16.8203 53.1406 18.0547C52.8594 19.2734 52.5625 20.4922 52.25 21.7109C51.9375 22.9141 51.6172 24.1016 51.2891 25.2734C50.9609 26.4297 50.6406 27.5156 50.3281 28.5312C50.4219 30.4531 50.5234 32.0312 50.6328 33.2656C50.7578 34.4844 50.8984 35.4453 51.0547 36.1484C51.2266 36.8516 51.4219 37.3438 51.6406 37.625C51.8594 37.8906 52.1094 38.0234 52.3906 38.0234ZM53.0234 9.17188C53.0234 8.84375 52.9844 8.58594 52.9062 8.39844C52.8281 8.21094 52.7031 8.11719 52.5312 8.11719C52.3594 8.11719 52.1875 8.35937 52.0156 8.84375C51.8438 9.32813 51.6719 9.98438 51.5 10.8125C51.3438 11.6406 51.1953 12.6016 51.0547 13.6953C50.9297 14.7891 50.8125 15.9531 50.7031 17.1875C50.5938 18.4062 50.5078 19.6562 50.4453 20.9375C50.3828 22.2188 50.3438 23.4531 50.3281 24.6406C50.7031 23.2656 51.0469 21.8594 51.3594 20.4219C51.6875 18.9688 51.9766 17.5625 52.2266 16.2031C52.4766 14.8438 52.6719 13.5625 52.8125 12.3594C52.9531 11.1406 53.0234 10.0781 53.0234 9.17188ZM65.2109 23.4688C64.7578 23.4688 64.3203 23.6328 63.8984 23.9609C63.4922 24.2734 63.1016 24.7109 62.7266 25.2734C62.3516 25.8203 61.9844 26.4688 61.625 27.2188C61.2812 27.9531 60.9375 28.7422 60.5938 29.5859V29.8672C60.5469 31.2422 60.5 32.7031 60.4531 34.25C60.4219 35.7969 60.4062 37.4844 60.4062 39.3125C60.4062 39.625 60.2969 39.8906 60.0781 40.1094C59.875 40.3125 59.6328 40.4844 59.3516 40.625C59.0703 40.75 58.7812 40.8438 58.4844 40.9062C58.1875 40.9688 57.9453 41 57.7578 41C57.5234 41 57.3047 40.9297 57.1016 40.7891C56.8984 40.6484 56.7969 40.3359 56.7969 39.8516C56.7969 39.6172 56.8203 39.3281 56.8672 38.9844C56.9141 38.625 56.9766 38.2422 57.0547 37.8359C57.1172 37.4297 57.1953 37.0156 57.2891 36.5938C57.3672 36.1562 57.4453 35.75 57.5234 35.375C57.5234 34.0469 57.5234 32.8516 57.5234 31.7891C57.5078 30.7266 57.5 29.7812 57.5 28.9531C57.5 28.125 57.5 27.3984 57.5 26.7734C57.4844 26.1484 57.4766 25.6094 57.4766 25.1562C57.4766 24.4062 57.4922 23.8594 57.5234 23.5156C57.5391 23.1562 57.5703 22.9062 57.6172 22.7656C57.6953 22.5469 57.8359 22.375 58.0391 22.25C58.2578 22.125 58.4844 22.0312 58.7188 21.9688C58.9531 21.8906 59.1875 21.8438 59.4219 21.8281C59.6562 21.8125 59.8359 21.8047 59.9609 21.8047C60.2578 21.8047 60.4531 21.8906 60.5469 22.0625C60.6406 22.2344 60.6875 22.5 60.6875 22.8594C60.6875 23.6719 60.6875 24.4062 60.6875 25.0625C60.6875 25.7188 60.6719 26.375 60.6406 27.0312C60.9375 26.3281 61.2812 25.6641 61.6719 25.0391C62.0781 24.3984 62.5234 23.8438 63.0078 23.375C63.4922 22.8906 64 22.5078 64.5312 22.2266C65.0781 21.9453 65.6406 21.8047 66.2188 21.8047C66.9219 21.8047 67.5 21.9531 67.9531 22.25C68.4219 22.5312 68.7891 22.9297 69.0547 23.4453C69.3359 23.9609 69.5391 24.5703 69.6641 25.2734C69.8047 25.9609 69.8984 26.7109 69.9453 27.5234C70.3828 26.7266 70.8516 25.9844 71.3516 25.2969C71.8672 24.5938 72.4062 23.9844 72.9688 23.4688C73.5469 22.9531 74.1484 22.5469 74.7734 22.25C75.4141 21.9531 76.0781 21.8047 76.7656 21.8047C77.9531 21.8047 78.8203 22.1797 79.3672 22.9297C79.9141 23.6641 80.1875 24.6641 80.1875 25.9297C80.1875 26.7266 80.125 27.6172 80 28.6016C79.875 29.5859 79.7422 30.5859 79.6016 31.6016C79.4609 32.6016 79.3281 33.5859 79.2031 34.5547C79.0781 35.5234 79.0156 36.4062 79.0156 37.2031C79.0156 38.1719 79.2578 38.6562 79.7422 38.6562C79.9922 38.6562 80.2656 38.5078 80.5625 38.2109C80.8594 37.8984 81.1953 37.4297 81.5703 36.8047C81.9609 36.1641 82.4062 35.3594 82.9062 34.3906C83.4219 33.4219 84.0156 32.2656 84.6875 30.9219L84.9219 30.4297L85.8828 31.1562L85.6484 31.6484C84.7266 33.4922 83.9375 35.0156 83.2812 36.2188C82.6406 37.4219 82.0625 38.3828 81.5469 39.1016C81.0312 39.8047 80.5391 40.2969 80.0703 40.5781C79.6172 40.8594 79.1094 41 78.5469 41C78.2188 41 77.8984 40.9531 77.5859 40.8594C77.2734 40.7656 77 40.6016 76.7656 40.3672C76.5312 40.1328 76.3438 39.8203 76.2031 39.4297C76.0625 39.0234 75.9922 38.5078 75.9922 37.8828C75.9922 36.9453 76.0547 35.8906 76.1797 34.7188C76.3047 33.5469 76.4453 32.375 76.6016 31.2031C76.7578 30.0312 76.8984 28.9297 77.0234 27.8984C77.1484 26.8516 77.2109 26 77.2109 25.3438C77.2109 24.7656 77.0859 24.3047 76.8359 23.9609C76.5859 23.6016 76.2109 23.4219 75.7109 23.4219C75.2109 23.4219 74.6875 23.6172 74.1406 24.0078C73.6094 24.3984 73.0859 24.9062 72.5703 25.5312C72.0703 26.1406 71.5938 26.8281 71.1406 27.5938C70.7031 28.3594 70.3203 29.1172 69.9922 29.8672C69.9922 31.5078 69.9766 32.9453 69.9453 34.1797C69.9141 35.3984 69.8672 36.4297 69.8047 37.2734C69.7578 38.1172 69.6875 38.7891 69.5938 39.2891C69.5 39.7734 69.3984 40.1016 69.2891 40.2734C69.2109 40.3828 69.0781 40.4844 68.8906 40.5781C68.7031 40.6719 68.4922 40.75 68.2578 40.8125C68.0391 40.875 67.8203 40.9219 67.6016 40.9531C67.3984 40.9844 67.2422 41 67.1328 41C66.8828 41 66.6641 40.9297 66.4766 40.7891C66.3047 40.6328 66.2188 40.3359 66.2188 39.8984C66.2188 39.6953 66.2344 39.4219 66.2656 39.0781C66.3125 38.7344 66.3672 38.3516 66.4297 37.9297C66.4922 37.5078 66.5625 37.0547 66.6406 36.5703C66.7188 36.0859 66.7969 35.5938 66.875 35.0938C66.8906 34.625 66.9062 34.1016 66.9219 33.5234C66.9375 32.9453 66.9531 32.375 66.9688 31.8125C66.9844 31.2344 66.9922 30.6875 66.9922 30.1719C67.0078 29.6406 67.0156 29.1875 67.0156 28.8125C67.0156 28.0156 66.9922 27.2891 66.9453 26.6328C66.8984 25.9766 66.8047 25.4141 66.6641 24.9453C66.5391 24.4766 66.3594 24.1172 66.125 23.8672C65.8906 23.6016 65.5859 23.4688 65.2109 23.4688ZM108.477 35.4688C108.305 36.6875 108.055 37.7266 107.727 38.5859C107.398 39.4297 107 40.125 106.531 40.6719C106.062 41.2031 105.523 41.5859 104.914 41.8203C104.32 42.0703 103.664 42.1953 102.945 42.1953C101.93 42.1953 100.977 41.8984 100.086 41.3047C99.2109 40.7109 98.4531 39.8281 97.8125 38.6562C97.1719 37.4844 96.6641 36.0312 96.2891 34.2969C95.9297 32.5625 95.75 30.5547 95.75 28.2734C95.75 25.8828 95.9766 23.5625 96.4297 21.3125C96.8984 19.0625 97.5547 16.9531 98.3984 14.9844C99.2578 13.0156 100.281 11.2187 101.469 9.59375C102.672 7.95312 104.008 6.55469 105.477 5.39844C106.961 4.22656 108.562 3.32031 110.281 2.67969C112 2.02344 113.797 1.69531 115.672 1.69531C117.281 1.69531 118.75 1.9375 120.078 2.42188C121.406 2.90625 122.547 3.57812 123.5 4.4375C124.453 5.29688 125.188 6.3125 125.703 7.48438C126.219 8.65625 126.477 9.92188 126.477 11.2812C126.477 12.9219 126.25 14.4531 125.797 15.875C125.344 17.2812 124.711 18.5703 123.898 19.7422C123.102 20.9141 122.148 21.9609 121.039 22.8828C119.93 23.8047 118.719 24.5859 117.406 25.2266C116.109 25.8672 114.734 26.3672 113.281 26.7266C111.844 27.0703 110.383 27.2656 108.898 27.3125C108.852 29.2656 108.797 30.9141 108.734 32.2578C108.688 33.5859 108.602 34.6562 108.477 35.4688ZM104.398 25.6484C104.477 25.6797 104.57 25.7109 104.68 25.7422C104.773 25.7734 104.883 25.8047 105.008 25.8359C105.148 25.8672 105.312 25.8984 105.5 25.9297C105.469 23.9766 105.43 22.1875 105.383 20.5625C105.352 18.9219 105.312 17.4922 105.266 16.2734C105.203 14.8516 105.148 13.5703 105.102 12.4297C105.211 12.3359 105.336 12.2578 105.477 12.1953C105.602 12.1328 105.75 12.0781 105.922 12.0312C106.094 11.9844 106.305 11.9609 106.555 11.9609C107.273 11.9609 107.852 12.0938 108.289 12.3594C108.727 12.6094 108.945 13.0391 108.945 13.6484C108.945 16.2266 108.945 18.5391 108.945 20.5859C108.945 22.6328 108.93 24.4766 108.898 26.1172C110.945 26.1172 112.797 25.7266 114.453 24.9453C116.125 24.1641 117.547 23.125 118.719 21.8281C119.891 20.5156 120.797 19.0078 121.438 17.3047C122.078 15.6016 122.398 13.8203 122.398 11.9609C122.398 10.7734 122.234 9.64844 121.906 8.58594C121.594 7.50781 121.109 6.57031 120.453 5.77344C119.797 4.96094 118.969 4.32031 117.969 3.85156C116.984 3.36719 115.82 3.125 114.477 3.125C113.117 3.125 111.773 3.38281 110.445 3.89844C109.133 4.41406 107.875 5.1875 106.672 6.21875C105.484 7.25 104.383 8.53125 103.367 10.0625C102.367 11.5937 101.492 13.3828 100.742 15.4297C100.008 17.4766 99.4297 19.7734 99.0078 22.3203C98.6016 24.8516 98.3984 27.6406 98.3984 30.6875C98.3984 32 98.4609 33.2812 98.5859 34.5312C98.7266 35.7656 98.9531 36.8672 99.2656 37.8359C99.5781 38.7891 99.9922 39.5547 100.508 40.1328C101.039 40.7109 101.695 41 102.477 41C102.898 41 103.297 40.9141 103.672 40.7422C104.047 40.5703 104.375 40.2188 104.656 39.6875C104.938 39.1406 105.164 38.3672 105.336 37.3672C105.508 36.3516 105.594 35 105.594 33.3125C105.594 32.25 105.586 31.2031 105.57 30.1719C105.555 29.125 105.547 28.1094 105.547 27.125C105.312 27.0938 105.109 27.0547 104.938 27.0078C104.766 26.9609 104.617 26.9219 104.492 26.8906C104.352 26.8438 104.234 26.7969 104.141 26.75L104.398 25.6484ZM129.594 38.0234C129.875 38.0234 130.195 37.8438 130.555 37.4844C130.93 37.1094 131.328 36.6016 131.75 35.9609C132.172 35.3203 132.617 34.5703 133.086 33.7109C133.555 32.8516 134.039 31.9219 134.539 30.9219L134.773 30.4297L135.734 31.1562L135.5 31.6484C134.672 33.3047 133.93 34.7266 133.273 35.9141C132.633 37.0859 132.031 38.0547 131.469 38.8203C130.906 39.5703 130.367 40.125 129.852 40.4844C129.352 40.8281 128.836 41 128.305 41C127.602 41 126.992 40.7734 126.477 40.3203C125.977 39.8516 125.555 39.0781 125.211 38C124.883 36.9062 124.641 35.4688 124.484 33.6875C124.312 31.9062 124.227 29.7031 124.227 27.0781C124.227 23.3594 124.383 20.1719 124.695 17.5156C125.008 14.8438 125.43 12.6563 125.961 10.9531C126.508 9.23438 127.133 7.97656 127.836 7.17969C128.555 6.36719 129.305 5.96094 130.086 5.96094C130.555 5.96094 130.945 6.15625 131.258 6.54688C131.586 6.92188 131.75 7.60937 131.75 8.60938C131.75 9.39062 131.688 10.2812 131.562 11.2812C131.438 12.2813 131.273 13.3516 131.07 14.4922C130.867 15.6328 130.625 16.8203 130.344 18.0547C130.062 19.2734 129.766 20.4922 129.453 21.7109C129.141 22.9141 128.82 24.1016 128.492 25.2734C128.164 26.4297 127.844 27.5156 127.531 28.5312C127.625 30.4531 127.727 32.0312 127.836 33.2656C127.961 34.4844 128.102 35.4453 128.258 36.1484C128.43 36.8516 128.625 37.3438 128.844 37.625C129.062 37.8906 129.312 38.0234 129.594 38.0234ZM130.227 9.17188C130.227 8.84375 130.188 8.58594 130.109 8.39844C130.031 8.21094 129.906 8.11719 129.734 8.11719C129.562 8.11719 129.391 8.35937 129.219 8.84375C129.047 9.32813 128.875 9.98438 128.703 10.8125C128.547 11.6406 128.398 12.6016 128.258 13.6953C128.133 14.7891 128.016 15.9531 127.906 17.1875C127.797 18.4062 127.711 19.6562 127.648 20.9375C127.586 22.2188 127.547 23.4531 127.531 24.6406C127.906 23.2656 128.25 21.8594 128.562 20.4219C128.891 18.9688 129.18 17.5625 129.43 16.2031C129.68 14.8438 129.875 13.5625 130.016 12.3594C130.156 11.1406 130.227 10.0781 130.227 9.17188ZM141.688 38.3516C142.234 38.3516 142.789 38.2109 143.352 37.9297C143.93 37.6484 144.508 37.2109 145.086 36.6172C145.68 36.0234 146.289 35.2578 146.914 34.3203C147.539 33.3672 148.18 32.2344 148.836 30.9219L149.07 30.4297L150.031 31.1562L149.797 31.6484C148.953 33.3203 148.109 34.75 147.266 35.9375C146.438 37.125 145.617 38.0938 144.805 38.8438C144.008 39.5938 143.219 40.1406 142.438 40.4844C141.656 40.8281 140.906 41 140.188 41C139.172 41 138.266 40.7891 137.469 40.3672C136.672 39.9453 136 39.375 135.453 38.6562C134.906 37.9219 134.492 37.0781 134.211 36.125C133.914 35.1562 133.766 34.1406 133.766 33.0781C133.766 31.3906 134 29.8594 134.469 28.4844C134.922 27.0938 135.531 25.9062 136.297 24.9219C137.078 23.9375 137.961 23.1719 138.945 22.625C139.93 22.0781 140.953 21.8047 142.016 21.8047C143.094 21.8047 143.914 22.0781 144.477 22.625C145.055 23.1719 145.344 23.8594 145.344 24.6875C145.344 25.4844 145.117 26.2344 144.664 26.9375C144.211 27.625 143.594 28.3047 142.812 28.9766C142.047 29.6328 141.156 30.2891 140.141 30.9453C139.125 31.5859 138.055 32.25 136.93 32.9375C137.039 33.75 137.227 34.4922 137.492 35.1641C137.758 35.8203 138.094 36.3906 138.5 36.875C138.906 37.3438 139.375 37.7109 139.906 37.9766C140.438 38.2266 141.031 38.3516 141.688 38.3516ZM142.414 25.3906C142.414 24.7656 142.242 24.2734 141.898 23.9141C141.57 23.5547 141.164 23.375 140.68 23.375C140.273 23.375 139.844 23.5234 139.391 23.8203C138.938 24.1016 138.523 24.5625 138.148 25.2031C137.773 25.8281 137.461 26.6328 137.211 27.6172C136.961 28.6016 136.836 29.7969 136.836 31.2031V31.7422C137.367 31.4609 137.953 31.0938 138.594 30.6406C139.25 30.1719 139.859 29.6562 140.422 29.0938C140.984 28.5312 141.453 27.9375 141.828 27.3125C142.219 26.6719 142.414 26.0312 142.414 25.3906ZM150.266 30.6875L150.031 31.1562L149.797 31.6484L148.836 30.9219L149.07 30.4297C149.461 29.6328 149.781 28.8359 150.031 28.0391C150.297 27.2266 150.508 26.4688 150.664 25.7656C150.836 25.0625 150.977 24.4453 151.086 23.9141C151.195 23.3828 151.305 23 151.414 22.7656C151.508 22.5781 151.641 22.4297 151.812 22.3203C152 22.1953 152.188 22.0938 152.375 22.0156C152.578 21.9375 152.766 21.8828 152.938 21.8516C153.125 21.8203 153.258 21.8047 153.336 21.8047C153.68 21.8047 153.906 21.875 154.016 22.0156C154.141 22.1562 154.203 22.4062 154.203 22.7656C154.203 22.9375 154.164 23.3672 154.086 24.0547C154.023 24.7266 153.945 25.5781 153.852 26.6094C153.773 27.625 153.695 28.7734 153.617 30.0547C153.555 31.3203 153.523 32.6328 153.523 33.9922C153.523 34.9766 153.57 35.7578 153.664 36.3359C153.758 36.8984 153.875 37.3203 154.016 37.6016C154.172 37.8828 154.336 38.0625 154.508 38.1406C154.695 38.2188 154.883 38.2578 155.07 38.2578C155.32 38.2578 155.602 38.1484 155.914 37.9297C156.227 37.7109 156.594 37.3281 157.016 36.7812C157.438 36.2188 157.922 35.4688 158.469 34.5312C159.016 33.5781 159.656 32.375 160.391 30.9219L160.648 30.4297L161.609 31.1562L161.352 31.6484C160.758 32.8047 160.164 33.9453 159.57 35.0703C158.992 36.1953 158.398 37.1953 157.789 38.0703C157.195 38.9453 156.594 39.6562 155.984 40.2031C155.375 40.7344 154.766 41 154.156 41C153.516 41 152.961 40.875 152.492 40.625C152.039 40.3594 151.656 39.9297 151.344 39.3359C151.047 38.7422 150.82 37.9609 150.664 36.9922C150.523 36.0078 150.453 34.7969 150.453 33.3594C150.453 32.9531 150.453 32.5312 150.453 32.0938C150.453 31.6406 150.469 31.1719 150.5 30.6875H150.266ZM155.07 17C155.07 17.5469 154.883 18.0078 154.508 18.3828C154.148 18.7422 153.695 18.9219 153.148 18.9219C152.617 18.9219 152.164 18.7422 151.789 18.3828C151.414 18.0078 151.227 17.5469 151.227 17C151.227 16.4688 151.414 16.0156 151.789 15.6406C152.164 15.2656 152.617 15.0781 153.148 15.0781C153.695 15.0781 154.148 15.2656 154.508 15.6406C154.883 16.0156 155.07 16.4688 155.07 17ZM169.672 23.4219C169.234 23.4219 168.742 23.6172 168.195 24.0078C167.664 24.3984 167.125 24.9062 166.578 25.5312C166.031 26.1406 165.5 26.8281 164.984 27.5938C164.484 28.3594 164.047 29.1172 163.672 29.8672C163.625 31.2422 163.578 32.7422 163.531 34.3672C163.5 35.9922 163.484 37.7266 163.484 39.5703C163.484 39.8047 163.375 40.0156 163.156 40.2031C162.953 40.375 162.711 40.5234 162.43 40.6484C162.148 40.7578 161.859 40.8438 161.562 40.9062C161.266 40.9688 161.023 41 160.836 41C160.602 41 160.383 40.9297 160.18 40.7891C159.977 40.6484 159.875 40.3359 159.875 39.8516C159.875 39.6172 159.898 39.3281 159.945 38.9844C159.992 38.625 160.055 38.2422 160.133 37.8359C160.195 37.4297 160.273 37.0156 160.367 36.5938C160.445 36.1562 160.523 35.75 160.602 35.375V23.9141C160.602 23.6016 160.609 23.3594 160.625 23.1875C160.625 23 160.648 22.8594 160.695 22.7656C160.789 22.5469 160.953 22.375 161.188 22.25C161.422 22.125 161.672 22.0312 161.938 21.9688C162.203 21.8906 162.461 21.8438 162.711 21.8281C162.961 21.8125 163.156 21.8047 163.297 21.8047C163.562 21.8047 163.742 21.875 163.836 22.0156C163.945 22.1562 164 22.4062 164 22.7656C164 22.7188 163.961 23.1016 163.883 23.9141C163.82 24.7266 163.766 25.8906 163.719 27.4062C164.188 26.6719 164.695 25.9688 165.242 25.2969C165.789 24.625 166.359 24.0312 166.953 23.5156C167.547 23 168.156 22.5859 168.781 22.2734C169.422 21.9609 170.07 21.8047 170.727 21.8047C171.898 21.8047 172.758 22.1797 173.305 22.9297C173.852 23.6641 174.125 24.6641 174.125 25.9297C174.125 26.7266 174.07 27.6172 173.961 28.6016C173.867 29.5703 173.75 30.5625 173.609 31.5781C173.484 32.5781 173.367 33.5625 173.258 34.5312C173.164 35.4844 173.117 36.3594 173.117 37.1562C173.117 38.1875 173.438 38.7031 174.078 38.7031C174.281 38.7031 174.516 38.6016 174.781 38.3984C175.062 38.1797 175.406 37.7812 175.812 37.2031C176.234 36.625 176.734 35.8359 177.312 34.8359C177.891 33.8203 178.578 32.5156 179.375 30.9219L179.609 30.4297L180.57 31.1562L180.336 31.6484C179.398 33.5234 178.562 35.0625 177.828 36.2656C177.109 37.4688 176.453 38.4219 175.859 39.125C175.266 39.8281 174.711 40.3203 174.195 40.6016C173.68 40.8672 173.164 41 172.648 41C172.32 41 171.992 40.9531 171.664 40.8594C171.336 40.7656 171.047 40.6016 170.797 40.3672C170.547 40.1328 170.344 39.8203 170.188 39.4297C170.031 39.0234 169.953 38.5078 169.953 37.8828C169.953 36.9453 170.016 35.8906 170.141 34.7188C170.266 33.5469 170.406 32.375 170.562 31.2031C170.719 30.0312 170.859 28.9297 170.984 27.8984C171.109 26.8516 171.172 26 171.172 25.3438C171.172 24.7656 171.047 24.3047 170.797 23.9609C170.547 23.6016 170.172 23.4219 169.672 23.4219ZM213.406 32.6094C213.406 33.9844 213.438 35.0703 213.5 35.8672C213.578 36.6641 213.688 37.2656 213.828 37.6719C213.984 38.0781 214.18 38.3359 214.414 38.4453C214.648 38.5547 214.922 38.6094 215.234 38.6094C215.656 38.6094 216.094 38.4766 216.547 38.2109C217 37.9453 217.445 37.6016 217.883 37.1797C218.32 36.7578 218.734 36.2891 219.125 35.7734C219.531 35.2578 219.898 34.7578 220.227 34.2734C220.57 33.7734 220.859 33.3125 221.094 32.8906C221.344 32.4531 221.531 32.1172 221.656 31.8828L222.383 30.4297L223.344 31.1562L222.617 32.6094C222.492 32.8438 222.289 33.2266 222.008 33.7578C221.727 34.2734 221.375 34.8516 220.953 35.4922C220.531 36.1172 220.055 36.7734 219.523 37.4609C218.992 38.1328 218.422 38.75 217.812 39.3125C217.203 39.875 216.562 40.3359 215.891 40.6953C215.219 41.0547 214.531 41.2344 213.828 41.2344C213.188 41.2344 212.617 41.125 212.117 40.9062C211.617 40.6875 211.195 40.3047 210.852 39.7578C210.508 39.1953 210.242 38.4375 210.055 37.4844C209.883 36.5156 209.797 35.2891 209.797 33.8047C209.797 33.2266 209.805 32.6797 209.82 32.1641C209.852 31.6328 209.891 30.9922 209.938 30.2422C209.141 31.7891 208.219 33.2812 207.172 34.7188C206.141 36.1562 205.031 37.4297 203.844 38.5391C202.656 39.6484 201.414 40.5312 200.117 41.1875C198.836 41.8594 197.539 42.1953 196.227 42.1953C195.398 42.1953 194.609 42.0469 193.859 41.75C193.109 41.4531 192.445 41 191.867 40.3906C191.289 39.7656 190.828 38.9688 190.484 38C190.141 37.0312 189.969 35.875 189.969 34.5312C189.969 32.375 190.211 30.2578 190.695 28.1797C191.164 26.1016 191.82 24.0938 192.664 22.1562C193.508 20.2031 194.5 18.3438 195.641 16.5781C196.781 14.7969 198.008 13.1484 199.32 11.6328C200.633 10.1172 202.008 8.75 203.445 7.53125C204.883 6.29687 206.32 5.24219 207.758 4.36719C209.195 3.49219 210.594 2.82031 211.953 2.35156C213.328 1.88281 214.609 1.64844 215.797 1.64844C217.109 1.64844 218.156 1.98437 218.938 2.65625C219.719 3.3125 220.109 4.25 220.109 5.46875C220.109 6.28125 219.945 7.07813 219.617 7.85938C219.305 8.625 218.883 9.36719 218.352 10.0859C217.836 10.7891 217.242 11.4609 216.57 12.1016C215.914 12.7266 215.25 13.2969 214.578 13.8125C213.906 14.3125 213.25 14.7578 212.609 15.1484C211.984 15.5234 211.445 15.8203 210.992 16.0391L210.289 15.0781C210.68 14.875 211.125 14.5937 211.625 14.2344C212.141 13.875 212.656 13.4531 213.172 12.9688C213.688 12.4844 214.188 11.9531 214.672 11.375C215.172 10.7813 215.617 10.1641 216.008 9.52344C216.398 8.86719 216.711 8.19531 216.945 7.50781C217.18 6.80469 217.297 6.10937 217.297 5.42188C217.297 4.75 217.117 4.19531 216.758 3.75781C216.414 3.30469 215.852 3.07812 215.07 3.07812C214.148 3.07812 213.148 3.32031 212.07 3.80469C210.992 4.27344 209.883 4.94531 208.742 5.82031C207.602 6.69531 206.453 7.74219 205.297 8.96094C204.156 10.1641 203.055 11.5 201.992 12.9688C200.93 14.4219 199.938 15.9844 199.016 17.6562C198.109 19.3125 197.312 21.0391 196.625 22.8359C195.953 24.6172 195.422 26.4375 195.031 28.2969C194.641 30.1406 194.445 31.9766 194.445 33.8047C194.445 34.6484 194.508 35.4297 194.633 36.1484C194.758 36.8516 194.961 37.4609 195.242 37.9766C195.523 38.4766 195.891 38.8672 196.344 39.1484C196.797 39.4297 197.359 39.5703 198.031 39.5703C198.875 39.5703 199.703 39.3828 200.516 39.0078C201.328 38.6172 202.117 38.0938 202.883 37.4375C203.648 36.7812 204.383 36.0156 205.086 35.1406C205.805 34.2656 206.477 33.3281 207.102 32.3281C207.727 31.3281 208.305 30.3047 208.836 29.2578C209.383 28.1953 209.867 27.1484 210.289 26.1172C210.398 24.9453 210.523 23.8281 210.664 22.7656C210.805 21.6875 210.945 20.7266 211.086 19.8828C211.227 19.0391 211.359 18.3438 211.484 17.7969C211.609 17.2344 211.719 16.8906 211.812 16.7656C211.875 16.6562 212.008 16.5312 212.211 16.3906C212.414 16.25 212.641 16.125 212.891 16.0156C213.156 15.8906 213.422 15.7891 213.688 15.7109C213.953 15.6172 214.18 15.5703 214.367 15.5703C214.836 15.5703 215.07 15.8047 215.07 16.2734C215.07 16.7109 215.039 17.2188 214.977 17.7969C214.914 18.375 214.828 18.9766 214.719 19.6016C214.609 20.2266 214.477 20.8594 214.32 21.5C214.18 22.125 214.016 22.7031 213.828 23.2344C213.703 24.9375 213.602 26.5781 213.523 28.1562C213.445 29.7188 213.406 31.2031 213.406 32.6094ZM223.578 30.6875L223.344 31.1562L223.109 31.6484L222.148 30.9219L222.383 30.4297C222.773 29.6328 223.094 28.8359 223.344 28.0391C223.609 27.2266 223.82 26.4688 223.977 25.7656C224.148 25.0625 224.289 24.4453 224.398 23.9141C224.508 23.3828 224.617 23 224.727 22.7656C224.82 22.5781 224.953 22.4297 225.125 22.3203C225.312 22.1953 225.5 22.0938 225.688 22.0156C225.891 21.9375 226.078 21.8828 226.25 21.8516C226.438 21.8203 226.57 21.8047 226.648 21.8047C226.992 21.8047 227.219 21.875 227.328 22.0156C227.453 22.1562 227.516 22.4062 227.516 22.7656C227.516 22.9375 227.477 23.3672 227.398 24.0547C227.336 24.7266 227.258 25.5781 227.164 26.6094C227.086 27.625 227.008 28.7734 226.93 30.0547C226.867 31.3203 226.836 32.6328 226.836 33.9922C226.836 34.9766 226.883 35.7578 226.977 36.3359C227.07 36.8984 227.188 37.3203 227.328 37.6016C227.484 37.8828 227.648 38.0625 227.82 38.1406C228.008 38.2188 228.195 38.2578 228.383 38.2578C228.633 38.2578 228.914 38.1484 229.227 37.9297C229.539 37.7109 229.906 37.3281 230.328 36.7812C230.75 36.2188 231.234 35.4688 231.781 34.5312C232.328 33.5781 232.969 32.375 233.703 30.9219L233.961 30.4297L234.922 31.1562L234.664 31.6484C234.07 32.8047 233.477 33.9453 232.883 35.0703C232.305 36.1953 231.711 37.1953 231.102 38.0703C230.508 38.9453 229.906 39.6562 229.297 40.2031C228.688 40.7344 228.078 41 227.469 41C226.828 41 226.273 40.875 225.805 40.625C225.352 40.3594 224.969 39.9297 224.656 39.3359C224.359 38.7422 224.133 37.9609 223.977 36.9922C223.836 36.0078 223.766 34.7969 223.766 33.3594C223.766 32.9531 223.766 32.5312 223.766 32.0938C223.766 31.6406 223.781 31.1719 223.812 30.6875H223.578ZM228.383 17C228.383 17.5469 228.195 18.0078 227.82 18.3828C227.461 18.7422 227.008 18.9219 226.461 18.9219C225.93 18.9219 225.477 18.7422 225.102 18.3828C224.727 18.0078 224.539 17.5469 224.539 17C224.539 16.4688 224.727 16.0156 225.102 15.6406C225.477 15.2656 225.93 15.0781 226.461 15.0781C227.008 15.0781 227.461 15.2656 227.82 15.6406C228.195 16.0156 228.383 16.4688 228.383 17ZM233.727 30.9219L233.961 30.4297C234.195 29.9609 234.406 29.4766 234.594 28.9766C234.797 28.4766 234.969 28.0078 235.109 27.5703C235.25 27.1172 235.359 26.7188 235.438 26.375C235.516 26.0156 235.57 25.7422 235.602 25.5547C235.195 25.5078 234.805 25.4062 234.43 25.25C234.055 25.0938 233.727 24.8828 233.445 24.6172C233.164 24.3516 232.945 24.0391 232.789 23.6797C232.617 23.3203 232.531 22.9141 232.531 22.4609C232.531 22.1016 232.594 21.7812 232.719 21.5C232.844 21.2188 233.016 20.9844 233.234 20.7969C233.438 20.6094 233.672 20.4688 233.938 20.375C234.188 20.2656 234.453 20.2109 234.734 20.2109C235.109 20.2109 235.438 20.2891 235.719 20.4453C236 20.6016 236.234 20.8125 236.422 21.0781C236.609 21.3281 236.75 21.625 236.844 21.9688C236.938 22.2969 236.984 22.6406 236.984 23C237.422 23 237.891 22.9375 238.391 22.8125C238.906 22.6875 239.422 22.5547 239.938 22.4141C240.453 22.2578 240.961 22.1172 241.461 21.9922C241.961 21.8672 242.422 21.8047 242.844 21.8047C243.203 21.8047 243.492 21.8828 243.711 22.0391C243.93 22.1797 244.039 22.4219 244.039 22.7656C244.039 23.0156 243.961 23.4297 243.805 24.0078C243.664 24.5859 243.484 25.2578 243.266 26.0234C243.047 26.7891 242.805 27.625 242.539 28.5312C242.289 29.4219 242.055 30.3281 241.836 31.25C241.617 32.1562 241.43 33.0391 241.273 33.8984C241.133 34.7578 241.062 35.5234 241.062 36.1953C241.062 37.0391 241.156 37.6094 241.344 37.9062C241.531 38.2031 241.867 38.3516 242.352 38.3516C242.555 38.3516 242.805 38.2656 243.102 38.0938C243.414 37.9062 243.789 37.5547 244.227 37.0391C244.664 36.5078 245.18 35.7578 245.773 34.7891C246.383 33.8047 247.086 32.5156 247.883 30.9219L248.117 30.4297L249.078 31.1562L248.844 31.6484C247.906 33.5234 247.07 35.0625 246.336 36.2656C245.602 37.4688 244.922 38.4219 244.297 39.125C243.688 39.8281 243.109 40.3203 242.562 40.6016C242.016 40.8672 241.469 41 240.922 41C240 41 239.25 40.6484 238.672 39.9453C238.094 39.2422 237.805 38.1562 237.805 36.6875C237.805 35.8906 237.914 35.0625 238.133 34.2031C238.352 33.3438 238.625 32.4922 238.953 31.6484C239.281 30.7891 239.648 29.9453 240.055 29.1172C240.461 28.2891 240.844 27.5078 241.203 26.7734C241.578 26.0234 241.914 25.3281 242.211 24.6875C242.508 24.0469 242.719 23.4844 242.844 23L242.703 22.8594C242.453 22.8594 242.117 22.9922 241.695 23.2578C241.273 23.5234 240.797 23.8281 240.266 24.1719C239.75 24.5 239.195 24.8125 238.602 25.1094C238.008 25.4062 237.406 25.5859 236.797 25.6484C236.766 25.8672 236.695 26.1875 236.586 26.6094C236.492 27.0312 236.359 27.5 236.188 28.0156C236.016 28.5312 235.82 29.0625 235.602 29.6094C235.383 30.1562 235.156 30.6719 234.922 31.1562L234.688 31.6484L233.727 30.9219ZM234.875 21.5234C234.734 21.5234 234.617 21.5703 234.523 21.6641C234.43 21.7578 234.383 21.8672 234.383 21.9922C234.383 22.1797 234.43 22.3438 234.523 22.4844C234.617 22.6094 234.734 22.7188 234.875 22.8125C235.016 22.8906 235.156 22.9531 235.297 23C235.453 23.0312 235.586 23.0469 235.695 23.0469C235.695 22.6094 235.625 22.25 235.484 21.9688C235.344 21.6719 235.141 21.5234 234.875 21.5234Z" fill="white"/>
</svg>
