<svg width="364" height="79" viewBox="0 0 364 79" fill="none" xmlns="http://www.w3.org/2000/svg">
<path fill-rule="evenodd" clip-rule="evenodd" d="M141.5 21.9719C141.5 23.2401 141.366 24.4789 141.111 25.675H105.389C105.134 24.4789 105 23.2401 105 21.9719C105 12.0936 113.123 4 123.25 4C133.377 4 141.5 12.0936 141.5 21.9719ZM101 21.9719C101 23.2339 101.108 24.4711 101.315 25.675H101V38.5125H93V68.1375H101V79H190V63.2H203V68.1375H212V38.5125H203V41.475H190V25.675H189.185C189.392 24.4711 189.5 23.2339 189.5 21.9719C189.5 9.83714 179.538 0 167.25 0C156.099 0 146.864 8.10031 145.25 18.6672C143.636 8.10031 134.401 0 123.25 0C110.962 0 101 9.83714 101 21.9719ZM145.25 25.2765C145.23 25.4098 145.208 25.5426 145.185 25.675H145.315C145.292 25.5426 145.27 25.4098 145.25 25.2765ZM149 21.9719C149 23.2401 149.134 24.4789 149.389 25.675H185.111C185.366 24.4789 185.5 23.2401 185.5 21.9719C185.5 12.0936 177.377 4 167.25 4C157.123 4 149 12.0936 149 21.9719Z" fill="#4185A8"/>
<path d="M23.1875 49.8047V45.4688C23.1875 43.5938 23.2422 41.8906 23.3516 40.3594C23.4766 38.8125 23.7422 37.3828 24.1484 36.0703C22.9141 35.8828 21.6484 35.6641 20.3516 35.4141C19.0547 35.1484 17.7812 34.8984 16.5312 34.6641C15.2969 34.4297 14.1172 34.2344 12.9922 34.0781C11.8828 33.9062 10.8828 33.8203 9.99219 33.8203C8.78906 33.8203 7.78906 33.9219 6.99219 34.125C6.19531 34.3125 5.55469 34.5703 5.07031 34.8984C4.58594 35.2266 4.24219 35.6094 4.03906 36.0469C3.85156 36.4688 3.75781 36.9219 3.75781 37.4062C3.75781 37.8906 3.86719 38.3359 4.08594 38.7422C4.32031 39.1484 4.64844 39.5078 5.07031 39.8203C5.49219 40.1172 5.99219 40.3516 6.57031 40.5234C7.16406 40.6953 7.82031 40.7812 8.53906 40.7812C9.33594 40.7812 10.0391 40.6953 10.6484 40.5234C11.2734 40.3359 11.8047 40.1328 12.2422 39.9141C12.7578 39.6641 13.2109 39.375 13.6016 39.0469L14.0703 40.0547C13.5859 40.4141 13.0547 40.7344 12.4766 41.0156C11.9766 41.2656 11.3906 41.4922 10.7188 41.6953C10.0625 41.8828 9.33594 41.9766 8.53906 41.9766C7.49219 41.9766 6.5625 41.8359 5.75 41.5547C4.95312 41.2734 4.28125 40.8984 3.73438 40.4297C3.1875 39.9453 2.77344 39.3828 2.49219 38.7422C2.21094 38.1016 2.07031 37.4219 2.07031 36.7031C2.07031 35.9375 2.20312 35.1953 2.46875 34.4766C2.71875 33.7578 3.14844 33.1172 3.75781 32.5547C4.35156 31.9922 5.14062 31.5469 6.125 31.2188C7.10938 30.875 8.32031 30.7031 9.75781 30.7031C11.0859 30.7031 12.4141 30.8125 13.7422 31.0312C15.0859 31.2344 16.4062 31.4922 17.7031 31.8047C19.0156 32.1016 20.2891 32.4297 21.5234 32.7891C22.7734 33.1328 23.9688 33.4453 25.1094 33.7266C25.7812 32.4922 26.6172 31.5078 27.6172 30.7734C28.6172 30.0234 29.7031 29.6484 30.875 29.6484C31.375 29.6484 31.8203 29.7344 32.2109 29.9062C32.6016 30.0625 32.9297 30.2734 33.1953 30.5391C33.4609 30.8047 33.6562 31.1172 33.7812 31.4766C33.9219 31.8203 33.9922 32.1875 33.9922 32.5781C33.9922 33.2344 33.8359 33.8047 33.5234 34.2891C33.2266 34.7578 32.8125 35.1562 32.2812 35.4844C31.75 35.7969 31.125 36.0312 30.4062 36.1875C29.6875 36.3281 28.9141 36.3984 28.0859 36.3984C27.8984 36.3984 27.7031 36.3984 27.5 36.3984C27.3125 36.3984 27.125 36.3828 26.9375 36.3516C26.8125 37.1328 26.7109 38.0078 26.6328 38.9766C26.5703 39.9297 26.5391 41.0078 26.5391 42.2109V49.8047H29.6797L29.1875 51.2344H26.5391V57C26.5391 58.3125 26.5234 59.4609 26.4922 60.4453C26.4609 61.4141 26.375 62.2812 26.2344 63.0469C26.0938 63.7969 25.8828 64.4766 25.6016 65.0859C25.3203 65.6797 24.9297 66.2656 24.4297 66.8438C23.5703 67.8281 22.375 68.6328 20.8438 69.2578C19.3125 69.8828 17.4531 70.1953 15.2656 70.1953C13.9219 70.1953 12.6406 70.0078 11.4219 69.6328C10.2031 69.2578 9.13281 68.7344 8.21094 68.0625C7.28906 67.3906 6.55469 66.5859 6.00781 65.6484C5.46094 64.7109 5.1875 63.6719 5.1875 62.5312C5.1875 61.6875 5.32031 60.9297 5.58594 60.2578C5.86719 59.5859 6.22656 58.9922 6.66406 58.4766C7.10156 57.9453 7.57812 57.4922 8.09375 57.1172C8.625 56.7422 9.14062 56.4297 9.64062 56.1797C10.1406 55.9297 10.5938 55.7344 11 55.5938C11.4062 55.4531 11.7109 55.3594 11.9141 55.3125L12.3828 56.2734C12.0234 56.4609 11.6172 56.7188 11.1641 57.0469C10.7266 57.3594 10.3125 57.7656 9.92188 58.2656C9.53125 58.75 9.20312 59.3438 8.9375 60.0469C8.67188 60.75 8.53906 61.5781 8.53906 62.5312C8.53906 63.5469 8.71094 64.4609 9.05469 65.2734C9.39844 66.0703 9.875 66.75 10.4844 67.3125C11.1094 67.8594 11.8438 68.2812 12.6875 68.5781C13.5469 68.8594 14.4844 69 15.5 69C16.6406 69 17.6797 68.8438 18.6172 68.5312C19.5703 68.2188 20.3828 67.6953 21.0547 66.9609C21.7266 66.2266 22.25 65.25 22.625 64.0312C23 62.8125 23.1875 61.2969 23.1875 59.4844V51.2344H18.6406L19.1094 49.8047H23.1875ZM30.875 30.9375C30.1719 30.9375 29.5234 31.1953 28.9297 31.7109C28.3359 32.2109 27.8438 33.0703 27.4531 34.2891C27.9375 34.3672 28.4062 34.4297 28.8594 34.4766C29.3125 34.5234 29.7422 34.5469 30.1484 34.5469C30.5703 34.5469 30.9297 34.4922 31.2266 34.3828C31.5391 34.2578 31.7891 34.1016 31.9766 33.9141C32.1641 33.7266 32.3047 33.5156 32.3984 33.2812C32.4922 33.0469 32.5391 32.8125 32.5391 32.5781C32.5391 32.125 32.3828 31.7422 32.0703 31.4297C31.7578 31.1016 31.3594 30.9375 30.875 30.9375ZM33.0547 58.6875L32.8203 59.1562L32.5859 59.6484L31.625 58.9219L31.8594 58.4297C32.25 57.6328 32.5703 56.8359 32.8203 56.0391C33.0859 55.2266 33.2969 54.4688 33.4531 53.7656C33.625 53.0625 33.7656 52.4453 33.875 51.9141C33.9844 51.3828 34.0938 51 34.2031 50.7656C34.2969 50.5781 34.4297 50.4297 34.6016 50.3203C34.7891 50.1953 34.9766 50.0938 35.1641 50.0156C35.3672 49.9375 35.5547 49.8828 35.7266 49.8516C35.9141 49.8203 36.0469 49.8047 36.125 49.8047C36.4688 49.8047 36.6953 49.875 36.8047 50.0156C36.9297 50.1562 36.9922 50.4062 36.9922 50.7656C36.9922 50.9375 36.9531 51.3672 36.875 52.0547C36.8125 52.7266 36.7344 53.5781 36.6406 54.6094C36.5625 55.625 36.4844 56.7734 36.4062 58.0547C36.3438 59.3203 36.3125 60.6328 36.3125 61.9922C36.3125 62.9766 36.3594 63.7578 36.4531 64.3359C36.5469 64.8984 36.6641 65.3203 36.8047 65.6016C36.9609 65.8828 37.125 66.0625 37.2969 66.1406C37.4844 66.2188 37.6719 66.2578 37.8594 66.2578C38.1094 66.2578 38.3906 66.1484 38.7031 65.9297C39.0156 65.7109 39.3828 65.3281 39.8047 64.7812C40.2266 64.2188 40.7109 63.4688 41.2578 62.5312C41.8047 61.5781 42.4453 60.375 43.1797 58.9219L43.4375 58.4297L44.3984 59.1562L44.1406 59.6484C43.5469 60.8047 42.9531 61.9453 42.3594 63.0703C41.7812 64.1953 41.1875 65.1953 40.5781 66.0703C39.9844 66.9453 39.3828 67.6562 38.7734 68.2031C38.1641 68.7344 37.5547 69 36.9453 69C36.3047 69 35.75 68.875 35.2812 68.625C34.8281 68.3594 34.4453 67.9297 34.1328 67.3359C33.8359 66.7422 33.6094 65.9609 33.4531 64.9922C33.3125 64.0078 33.2422 62.7969 33.2422 61.3594C33.2422 60.9531 33.2422 60.5312 33.2422 60.0938C33.2422 59.6406 33.2578 59.1719 33.2891 58.6875H33.0547ZM37.8594 45C37.8594 45.5469 37.6719 46.0078 37.2969 46.3828C36.9375 46.7422 36.4844 46.9219 35.9375 46.9219C35.4062 46.9219 34.9531 46.7422 34.5781 46.3828C34.2031 46.0078 34.0156 45.5469 34.0156 45C34.0156 44.4688 34.2031 44.0156 34.5781 43.6406C34.9531 43.2656 35.4062 43.0781 35.9375 43.0781C36.4844 43.0781 36.9375 43.2656 37.2969 43.6406C37.6719 44.0156 37.8594 44.4688 37.8594 45ZM48.4766 66.0234C48.7578 66.0234 49.0781 65.8438 49.4375 65.4844C49.8125 65.1094 50.2109 64.6016 50.6328 63.9609C51.0547 63.3203 51.5 62.5703 51.9688 61.7109C52.4375 60.8516 52.9219 59.9219 53.4219 58.9219L53.6562 58.4297L54.6172 59.1562L54.3828 59.6484C53.5547 61.3047 52.8125 62.7266 52.1562 63.9141C51.5156 65.0859 50.9141 66.0547 50.3516 66.8203C49.7891 67.5703 49.25 68.125 48.7344 68.4844C48.2344 68.8281 47.7188 69 47.1875 69C46.4844 69 45.875 68.7734 45.3594 68.3203C44.8594 67.8516 44.4375 67.0781 44.0938 66C43.7656 64.9062 43.5234 63.4688 43.3672 61.6875C43.1953 59.9062 43.1094 57.7031 43.1094 55.0781C43.1094 51.3594 43.2656 48.1719 43.5781 45.5156C43.8906 42.8438 44.3125 40.6562 44.8438 38.9531C45.3906 37.2344 46.0156 35.9766 46.7188 35.1797C47.4375 34.3672 48.1875 33.9609 48.9688 33.9609C49.4375 33.9609 49.8281 34.1562 50.1406 34.5469C50.4688 34.9219 50.6328 35.6094 50.6328 36.6094C50.6328 37.3906 50.5703 38.2812 50.4453 39.2812C50.3203 40.2812 50.1562 41.3516 49.9531 42.4922C49.75 43.6328 49.5078 44.8203 49.2266 46.0547C48.9453 47.2734 48.6484 48.4922 48.3359 49.7109C48.0234 50.9141 47.7031 52.1016 47.375 53.2734C47.0469 54.4297 46.7266 55.5156 46.4141 56.5312C46.5078 58.4531 46.6094 60.0312 46.7188 61.2656C46.8438 62.4844 46.9844 63.4453 47.1406 64.1484C47.3125 64.8516 47.5078 65.3438 47.7266 65.625C47.9453 65.8906 48.1953 66.0234 48.4766 66.0234ZM49.1094 37.1719C49.1094 36.8438 49.0703 36.5859 48.9922 36.3984C48.9141 36.2109 48.7891 36.1172 48.6172 36.1172C48.4453 36.1172 48.2734 36.3594 48.1016 36.8438C47.9297 37.3281 47.7578 37.9844 47.5859 38.8125C47.4297 39.6406 47.2812 40.6016 47.1406 41.6953C47.0156 42.7891 46.8984 43.9531 46.7891 45.1875C46.6797 46.4062 46.5938 47.6562 46.5312 48.9375C46.4688 50.2188 46.4297 51.4531 46.4141 52.6406C46.7891 51.2656 47.1328 49.8594 47.4453 48.4219C47.7734 46.9688 48.0625 45.5625 48.3125 44.2031C48.5625 42.8438 48.7578 41.5625 48.8984 40.3594C49.0391 39.1406 49.1094 38.0781 49.1094 37.1719ZM61.2969 51.4688C60.8438 51.4688 60.4062 51.6328 59.9844 51.9609C59.5781 52.2734 59.1875 52.7109 58.8125 53.2734C58.4375 53.8203 58.0703 54.4688 57.7109 55.2188C57.3672 55.9531 57.0234 56.7422 56.6797 57.5859V57.8672C56.6328 59.2422 56.5859 60.7031 56.5391 62.25C56.5078 63.7969 56.4922 65.4844 56.4922 67.3125C56.4922 67.625 56.3828 67.8906 56.1641 68.1094C55.9609 68.3125 55.7188 68.4844 55.4375 68.625C55.1562 68.75 54.8672 68.8438 54.5703 68.9062C54.2734 68.9688 54.0312 69 53.8438 69C53.6094 69 53.3906 68.9297 53.1875 68.7891C52.9844 68.6484 52.8828 68.3359 52.8828 67.8516C52.8828 67.6172 52.9062 67.3281 52.9531 66.9844C53 66.625 53.0625 66.2422 53.1406 65.8359C53.2031 65.4297 53.2812 65.0156 53.375 64.5938C53.4531 64.1562 53.5312 63.75 53.6094 63.375C53.6094 62.0469 53.6094 60.8516 53.6094 59.7891C53.5938 58.7266 53.5859 57.7812 53.5859 56.9531C53.5859 56.125 53.5859 55.3984 53.5859 54.7734C53.5703 54.1484 53.5625 53.6094 53.5625 53.1562C53.5625 52.4062 53.5781 51.8594 53.6094 51.5156C53.625 51.1562 53.6562 50.9062 53.7031 50.7656C53.7812 50.5469 53.9219 50.375 54.125 50.25C54.3438 50.125 54.5703 50.0312 54.8047 49.9688C55.0391 49.8906 55.2734 49.8438 55.5078 49.8281C55.7422 49.8125 55.9219 49.8047 56.0469 49.8047C56.3438 49.8047 56.5391 49.8906 56.6328 50.0625C56.7266 50.2344 56.7734 50.5 56.7734 50.8594C56.7734 51.6719 56.7734 52.4062 56.7734 53.0625C56.7734 53.7188 56.7578 54.375 56.7266 55.0312C57.0234 54.3281 57.3672 53.6641 57.7578 53.0391C58.1641 52.3984 58.6094 51.8438 59.0938 51.375C59.5781 50.8906 60.0859 50.5078 60.6172 50.2266C61.1641 49.9453 61.7266 49.8047 62.3047 49.8047C63.0078 49.8047 63.5859 49.9531 64.0391 50.25C64.5078 50.5312 64.875 50.9297 65.1406 51.4453C65.4219 51.9609 65.625 52.5703 65.75 53.2734C65.8906 53.9609 65.9844 54.7109 66.0312 55.5234C66.4688 54.7266 66.9375 53.9844 67.4375 53.2969C67.9531 52.5938 68.4922 51.9844 69.0547 51.4688C69.6328 50.9531 70.2344 50.5469 70.8594 50.25C71.5 49.9531 72.1641 49.8047 72.8516 49.8047C74.0391 49.8047 74.9062 50.1797 75.4531 50.9297C76 51.6641 76.2734 52.6641 76.2734 53.9297C76.2734 54.7266 76.2109 55.6172 76.0859 56.6016C75.9609 57.5859 75.8281 58.5859 75.6875 59.6016C75.5469 60.6016 75.4141 61.5859 75.2891 62.5547C75.1641 63.5234 75.1016 64.4062 75.1016 65.2031C75.1016 66.1719 75.3438 66.6562 75.8281 66.6562C76.0781 66.6562 76.3516 66.5078 76.6484 66.2109C76.9453 65.8984 77.2812 65.4297 77.6562 64.8047C78.0469 64.1641 78.4922 63.3594 78.9922 62.3906C79.5078 61.4219 80.1016 60.2656 80.7734 58.9219L81.0078 58.4297L81.9688 59.1562L81.7344 59.6484C80.8125 61.4922 80.0234 63.0156 79.3672 64.2188C78.7266 65.4219 78.1484 66.3828 77.6328 67.1016C77.1172 67.8047 76.625 68.2969 76.1562 68.5781C75.7031 68.8594 75.1953 69 74.6328 69C74.3047 69 73.9844 68.9531 73.6719 68.8594C73.3594 68.7656 73.0859 68.6016 72.8516 68.3672C72.6172 68.1328 72.4297 67.8203 72.2891 67.4297C72.1484 67.0234 72.0781 66.5078 72.0781 65.8828C72.0781 64.9453 72.1406 63.8906 72.2656 62.7188C72.3906 61.5469 72.5312 60.375 72.6875 59.2031C72.8438 58.0312 72.9844 56.9297 73.1094 55.8984C73.2344 54.8516 73.2969 54 73.2969 53.3438C73.2969 52.7656 73.1719 52.3047 72.9219 51.9609C72.6719 51.6016 72.2969 51.4219 71.7969 51.4219C71.2969 51.4219 70.7734 51.6172 70.2266 52.0078C69.6953 52.3984 69.1719 52.9062 68.6562 53.5312C68.1562 54.1406 67.6797 54.8281 67.2266 55.5938C66.7891 56.3594 66.4062 57.1172 66.0781 57.8672C66.0781 59.5078 66.0625 60.9453 66.0312 62.1797C66 63.3984 65.9531 64.4297 65.8906 65.2734C65.8438 66.1172 65.7734 66.7891 65.6797 67.2891C65.5859 67.7734 65.4844 68.1016 65.375 68.2734C65.2969 68.3828 65.1641 68.4844 64.9766 68.5781C64.7891 68.6719 64.5781 68.75 64.3438 68.8125C64.125 68.875 63.9062 68.9219 63.6875 68.9531C63.4844 68.9844 63.3281 69 63.2188 69C62.9688 69 62.75 68.9297 62.5625 68.7891C62.3906 68.6328 62.3047 68.3359 62.3047 67.8984C62.3047 67.6953 62.3203 67.4219 62.3516 67.0781C62.3984 66.7344 62.4531 66.3516 62.5156 65.9297C62.5781 65.5078 62.6484 65.0547 62.7266 64.5703C62.8047 64.0859 62.8828 63.5938 62.9609 63.0938C62.9766 62.625 62.9922 62.1016 63.0078 61.5234C63.0234 60.9453 63.0391 60.375 63.0547 59.8125C63.0703 59.2344 63.0781 58.6875 63.0781 58.1719C63.0938 57.6406 63.1016 57.1875 63.1016 56.8125C63.1016 56.0156 63.0781 55.2891 63.0312 54.6328C62.9844 53.9766 62.8906 53.4141 62.75 52.9453C62.625 52.4766 62.4453 52.1172 62.2109 51.8672C61.9766 51.6016 61.6719 51.4688 61.2969 51.4688Z" fill="#4185A8"/>
<path d="M234.016 63.4688C233.844 64.6875 233.594 65.7266 233.266 66.5859C232.938 67.4297 232.539 68.125 232.07 68.6719C231.602 69.2031 231.062 69.5859 230.453 69.8203C229.859 70.0703 229.203 70.1953 228.484 70.1953C227.469 70.1953 226.516 69.8984 225.625 69.3047C224.75 68.7109 223.992 67.8281 223.352 66.6562C222.711 65.4844 222.203 64.0312 221.828 62.2969C221.469 60.5625 221.289 58.5547 221.289 56.2734C221.289 53.8828 221.516 51.5625 221.969 49.3125C222.438 47.0625 223.094 44.9531 223.938 42.9844C224.797 41.0156 225.82 39.2188 227.008 37.5938C228.211 35.9531 229.547 34.5547 231.016 33.3984C232.5 32.2266 234.102 31.3203 235.82 30.6797C237.539 30.0234 239.336 29.6953 241.211 29.6953C242.82 29.6953 244.289 29.9375 245.617 30.4219C246.945 30.9062 248.086 31.5781 249.039 32.4375C249.992 33.2969 250.727 34.3125 251.242 35.4844C251.758 36.6562 252.016 37.9219 252.016 39.2812C252.016 40.9219 251.789 42.4531 251.336 43.875C250.883 45.2812 250.25 46.5703 249.438 47.7422C248.641 48.9141 247.688 49.9609 246.578 50.8828C245.469 51.8047 244.258 52.5859 242.945 53.2266C241.648 53.8672 240.273 54.3672 238.82 54.7266C237.383 55.0703 235.922 55.2656 234.438 55.3125C234.391 57.2656 234.336 58.9141 234.273 60.2578C234.227 61.5859 234.141 62.6562 234.016 63.4688ZM229.938 53.6484C230.016 53.6797 230.109 53.7109 230.219 53.7422C230.312 53.7734 230.422 53.8047 230.547 53.8359C230.688 53.8672 230.852 53.8984 231.039 53.9297C231.008 51.9766 230.969 50.1875 230.922 48.5625C230.891 46.9219 230.852 45.4922 230.805 44.2734C230.742 42.8516 230.688 41.5703 230.641 40.4297C230.75 40.3359 230.875 40.2578 231.016 40.1953C231.141 40.1328 231.289 40.0781 231.461 40.0312C231.633 39.9844 231.844 39.9609 232.094 39.9609C232.812 39.9609 233.391 40.0938 233.828 40.3594C234.266 40.6094 234.484 41.0391 234.484 41.6484C234.484 44.2266 234.484 46.5391 234.484 48.5859C234.484 50.6328 234.469 52.4766 234.438 54.1172C236.484 54.1172 238.336 53.7266 239.992 52.9453C241.664 52.1641 243.086 51.125 244.258 49.8281C245.43 48.5156 246.336 47.0078 246.977 45.3047C247.617 43.6016 247.938 41.8203 247.938 39.9609C247.938 38.7734 247.773 37.6484 247.445 36.5859C247.133 35.5078 246.648 34.5703 245.992 33.7734C245.336 32.9609 244.508 32.3203 243.508 31.8516C242.523 31.3672 241.359 31.125 240.016 31.125C238.656 31.125 237.312 31.3828 235.984 31.8984C234.672 32.4141 233.414 33.1875 232.211 34.2188C231.023 35.25 229.922 36.5312 228.906 38.0625C227.906 39.5938 227.031 41.3828 226.281 43.4297C225.547 45.4766 224.969 47.7734 224.547 50.3203C224.141 52.8516 223.938 55.6406 223.938 58.6875C223.938 60 224 61.2812 224.125 62.5312C224.266 63.7656 224.492 64.8672 224.805 65.8359C225.117 66.7891 225.531 67.5547 226.047 68.1328C226.578 68.7109 227.234 69 228.016 69C228.438 69 228.836 68.9141 229.211 68.7422C229.586 68.5703 229.914 68.2188 230.195 67.6875C230.477 67.1406 230.703 66.3672 230.875 65.3672C231.047 64.3516 231.133 63 231.133 61.3125C231.133 60.25 231.125 59.2031 231.109 58.1719C231.094 57.125 231.086 56.1094 231.086 55.125C230.852 55.0938 230.648 55.0547 230.477 55.0078C230.305 54.9609 230.156 54.9219 230.031 54.8906C229.891 54.8438 229.773 54.7969 229.68 54.75L229.938 53.6484ZM255.133 66.0234C255.414 66.0234 255.734 65.8438 256.094 65.4844C256.469 65.1094 256.867 64.6016 257.289 63.9609C257.711 63.3203 258.156 62.5703 258.625 61.7109C259.094 60.8516 259.578 59.9219 260.078 58.9219L260.312 58.4297L261.273 59.1562L261.039 59.6484C260.211 61.3047 259.469 62.7266 258.812 63.9141C258.172 65.0859 257.57 66.0547 257.008 66.8203C256.445 67.5703 255.906 68.125 255.391 68.4844C254.891 68.8281 254.375 69 253.844 69C253.141 69 252.531 68.7734 252.016 68.3203C251.516 67.8516 251.094 67.0781 250.75 66C250.422 64.9062 250.18 63.4688 250.023 61.6875C249.852 59.9062 249.766 57.7031 249.766 55.0781C249.766 51.3594 249.922 48.1719 250.234 45.5156C250.547 42.8438 250.969 40.6562 251.5 38.9531C252.047 37.2344 252.672 35.9766 253.375 35.1797C254.094 34.3672 254.844 33.9609 255.625 33.9609C256.094 33.9609 256.484 34.1562 256.797 34.5469C257.125 34.9219 257.289 35.6094 257.289 36.6094C257.289 37.3906 257.227 38.2812 257.102 39.2812C256.977 40.2812 256.812 41.3516 256.609 42.4922C256.406 43.6328 256.164 44.8203 255.883 46.0547C255.602 47.2734 255.305 48.4922 254.992 49.7109C254.68 50.9141 254.359 52.1016 254.031 53.2734C253.703 54.4297 253.383 55.5156 253.07 56.5312C253.164 58.4531 253.266 60.0312 253.375 61.2656C253.5 62.4844 253.641 63.4453 253.797 64.1484C253.969 64.8516 254.164 65.3438 254.383 65.625C254.602 65.8906 254.852 66.0234 255.133 66.0234ZM255.766 37.1719C255.766 36.8438 255.727 36.5859 255.648 36.3984C255.57 36.2109 255.445 36.1172 255.273 36.1172C255.102 36.1172 254.93 36.3594 254.758 36.8438C254.586 37.3281 254.414 37.9844 254.242 38.8125C254.086 39.6406 253.938 40.6016 253.797 41.6953C253.672 42.7891 253.555 43.9531 253.445 45.1875C253.336 46.4062 253.25 47.6562 253.188 48.9375C253.125 50.2188 253.086 51.4531 253.07 52.6406C253.445 51.2656 253.789 49.8594 254.102 48.4219C254.43 46.9688 254.719 45.5625 254.969 44.2031C255.219 42.8438 255.414 41.5625 255.555 40.3594C255.695 39.1406 255.766 38.0781 255.766 37.1719ZM267.227 66.3516C267.773 66.3516 268.328 66.2109 268.891 65.9297C269.469 65.6484 270.047 65.2109 270.625 64.6172C271.219 64.0234 271.828 63.2578 272.453 62.3203C273.078 61.3672 273.719 60.2344 274.375 58.9219L274.609 58.4297L275.57 59.1562L275.336 59.6484C274.492 61.3203 273.648 62.75 272.805 63.9375C271.977 65.125 271.156 66.0938 270.344 66.8438C269.547 67.5938 268.758 68.1406 267.977 68.4844C267.195 68.8281 266.445 69 265.727 69C264.711 69 263.805 68.7891 263.008 68.3672C262.211 67.9453 261.539 67.375 260.992 66.6562C260.445 65.9219 260.031 65.0781 259.75 64.125C259.453 63.1562 259.305 62.1406 259.305 61.0781C259.305 59.3906 259.539 57.8594 260.008 56.4844C260.461 55.0938 261.07 53.9062 261.836 52.9219C262.617 51.9375 263.5 51.1719 264.484 50.625C265.469 50.0781 266.492 49.8047 267.555 49.8047C268.633 49.8047 269.453 50.0781 270.016 50.625C270.594 51.1719 270.883 51.8594 270.883 52.6875C270.883 53.4844 270.656 54.2344 270.203 54.9375C269.75 55.625 269.133 56.3047 268.352 56.9766C267.586 57.6328 266.695 58.2891 265.68 58.9453C264.664 59.5859 263.594 60.25 262.469 60.9375C262.578 61.75 262.766 62.4922 263.031 63.1641C263.297 63.8203 263.633 64.3906 264.039 64.875C264.445 65.3438 264.914 65.7109 265.445 65.9766C265.977 66.2266 266.57 66.3516 267.227 66.3516ZM267.953 53.3906C267.953 52.7656 267.781 52.2734 267.438 51.9141C267.109 51.5547 266.703 51.375 266.219 51.375C265.812 51.375 265.383 51.5234 264.93 51.8203C264.477 52.1016 264.062 52.5625 263.688 53.2031C263.312 53.8281 263 54.6328 262.75 55.6172C262.5 56.6016 262.375 57.7969 262.375 59.2031V59.7422C262.906 59.4609 263.492 59.0938 264.133 58.6406C264.789 58.1719 265.398 57.6562 265.961 57.0938C266.523 56.5312 266.992 55.9375 267.367 55.3125C267.758 54.6719 267.953 54.0312 267.953 53.3906ZM275.805 58.6875L275.57 59.1562L275.336 59.6484L274.375 58.9219L274.609 58.4297C275 57.6328 275.32 56.8359 275.57 56.0391C275.836 55.2266 276.047 54.4688 276.203 53.7656C276.375 53.0625 276.516 52.4453 276.625 51.9141C276.734 51.3828 276.844 51 276.953 50.7656C277.047 50.5781 277.18 50.4297 277.352 50.3203C277.539 50.1953 277.727 50.0938 277.914 50.0156C278.117 49.9375 278.305 49.8828 278.477 49.8516C278.664 49.8203 278.797 49.8047 278.875 49.8047C279.219 49.8047 279.445 49.875 279.555 50.0156C279.68 50.1562 279.742 50.4062 279.742 50.7656C279.742 50.9375 279.703 51.3672 279.625 52.0547C279.562 52.7266 279.484 53.5781 279.391 54.6094C279.312 55.625 279.234 56.7734 279.156 58.0547C279.094 59.3203 279.062 60.6328 279.062 61.9922C279.062 62.9766 279.109 63.7578 279.203 64.3359C279.297 64.8984 279.414 65.3203 279.555 65.6016C279.711 65.8828 279.875 66.0625 280.047 66.1406C280.234 66.2188 280.422 66.2578 280.609 66.2578C280.859 66.2578 281.141 66.1484 281.453 65.9297C281.766 65.7109 282.133 65.3281 282.555 64.7812C282.977 64.2188 283.461 63.4688 284.008 62.5312C284.555 61.5781 285.195 60.375 285.93 58.9219L286.188 58.4297L287.148 59.1562L286.891 59.6484C286.297 60.8047 285.703 61.9453 285.109 63.0703C284.531 64.1953 283.938 65.1953 283.328 66.0703C282.734 66.9453 282.133 67.6562 281.523 68.2031C280.914 68.7344 280.305 69 279.695 69C279.055 69 278.5 68.875 278.031 68.625C277.578 68.3594 277.195 67.9297 276.883 67.3359C276.586 66.7422 276.359 65.9609 276.203 64.9922C276.062 64.0078 275.992 62.7969 275.992 61.3594C275.992 60.9531 275.992 60.5312 275.992 60.0938C275.992 59.6406 276.008 59.1719 276.039 58.6875H275.805ZM280.609 45C280.609 45.5469 280.422 46.0078 280.047 46.3828C279.688 46.7422 279.234 46.9219 278.688 46.9219C278.156 46.9219 277.703 46.7422 277.328 46.3828C276.953 46.0078 276.766 45.5469 276.766 45C276.766 44.4688 276.953 44.0156 277.328 43.6406C277.703 43.2656 278.156 43.0781 278.688 43.0781C279.234 43.0781 279.688 43.2656 280.047 43.6406C280.422 44.0156 280.609 44.4688 280.609 45ZM295.211 51.4219C294.773 51.4219 294.281 51.6172 293.734 52.0078C293.203 52.3984 292.664 52.9062 292.117 53.5312C291.57 54.1406 291.039 54.8281 290.523 55.5938C290.023 56.3594 289.586 57.1172 289.211 57.8672C289.164 59.2422 289.117 60.7422 289.07 62.3672C289.039 63.9922 289.023 65.7266 289.023 67.5703C289.023 67.8047 288.914 68.0156 288.695 68.2031C288.492 68.375 288.25 68.5234 287.969 68.6484C287.688 68.7578 287.398 68.8438 287.102 68.9062C286.805 68.9688 286.562 69 286.375 69C286.141 69 285.922 68.9297 285.719 68.7891C285.516 68.6484 285.414 68.3359 285.414 67.8516C285.414 67.6172 285.438 67.3281 285.484 66.9844C285.531 66.625 285.594 66.2422 285.672 65.8359C285.734 65.4297 285.812 65.0156 285.906 64.5938C285.984 64.1562 286.062 63.75 286.141 63.375V51.9141C286.141 51.6016 286.148 51.3594 286.164 51.1875C286.164 51 286.188 50.8594 286.234 50.7656C286.328 50.5469 286.492 50.375 286.727 50.25C286.961 50.125 287.211 50.0312 287.477 49.9688C287.742 49.8906 288 49.8438 288.25 49.8281C288.5 49.8125 288.695 49.8047 288.836 49.8047C289.102 49.8047 289.281 49.875 289.375 50.0156C289.484 50.1562 289.539 50.4062 289.539 50.7656C289.539 50.7188 289.5 51.1016 289.422 51.9141C289.359 52.7266 289.305 53.8906 289.258 55.4062C289.727 54.6719 290.234 53.9688 290.781 53.2969C291.328 52.625 291.898 52.0312 292.492 51.5156C293.086 51 293.695 50.5859 294.32 50.2734C294.961 49.9609 295.609 49.8047 296.266 49.8047C297.438 49.8047 298.297 50.1797 298.844 50.9297C299.391 51.6641 299.664 52.6641 299.664 53.9297C299.664 54.7266 299.609 55.6172 299.5 56.6016C299.406 57.5703 299.289 58.5625 299.148 59.5781C299.023 60.5781 298.906 61.5625 298.797 62.5312C298.703 63.4844 298.656 64.3594 298.656 65.1562C298.656 66.1875 298.977 66.7031 299.617 66.7031C299.82 66.7031 300.055 66.6016 300.32 66.3984C300.602 66.1797 300.945 65.7812 301.352 65.2031C301.773 64.625 302.273 63.8359 302.852 62.8359C303.43 61.8203 304.117 60.5156 304.914 58.9219L305.148 58.4297L306.109 59.1562L305.875 59.6484C304.938 61.5234 304.102 63.0625 303.367 64.2656C302.648 65.4688 301.992 66.4219 301.398 67.125C300.805 67.8281 300.25 68.3203 299.734 68.6016C299.219 68.8672 298.703 69 298.188 69C297.859 69 297.531 68.9531 297.203 68.8594C296.875 68.7656 296.586 68.6016 296.336 68.3672C296.086 68.1328 295.883 67.8203 295.727 67.4297C295.57 67.0234 295.492 66.5078 295.492 65.8828C295.492 64.9453 295.555 63.8906 295.68 62.7188C295.805 61.5469 295.945 60.375 296.102 59.2031C296.258 58.0312 296.398 56.9297 296.523 55.8984C296.648 54.8516 296.711 54 296.711 53.3438C296.711 52.7656 296.586 52.3047 296.336 51.9609C296.086 51.6016 295.711 51.4219 295.211 51.4219ZM330.438 63.1875C330.438 64.0781 330.516 64.8281 330.672 65.4375C330.828 66.0469 331.102 66.3516 331.492 66.3516C331.727 66.3516 331.977 66.2422 332.242 66.0234C332.523 65.7891 332.844 65.4141 333.203 64.8984C333.562 64.3828 333.969 63.7188 334.422 62.9062C334.891 62.0781 335.422 61.0703 336.016 59.8828L336.719 58.4297L337.68 59.1562L336.977 60.6094C336.32 61.9219 335.703 63.1016 335.125 64.1484C334.562 65.1797 334.023 66.0547 333.508 66.7734C332.992 67.4922 332.484 68.0469 331.984 68.4375C331.5 68.8125 331.016 69 330.531 69C330.016 69 329.578 68.8594 329.219 68.5781C328.875 68.2969 328.586 67.9141 328.352 67.4297C328.117 66.9297 327.938 66.3594 327.812 65.7188C327.688 65.0625 327.602 64.3672 327.555 63.6328C327.18 64.3828 326.766 65.0859 326.312 65.7422C325.859 66.3828 325.383 66.9453 324.883 67.4297C324.398 67.9141 323.891 68.2969 323.359 68.5781C322.828 68.8594 322.297 69 321.766 69C320.984 69 320.227 68.8359 319.492 68.5078C318.758 68.1797 318.102 67.6797 317.523 67.0078C316.961 66.3359 316.508 65.4922 316.164 64.4766C315.82 63.4453 315.648 62.2344 315.648 60.8438C315.648 59.2188 315.859 57.7344 316.281 56.3906C316.703 55.0312 317.273 53.8672 317.992 52.8984C318.711 51.9141 319.539 51.1562 320.477 50.625C321.414 50.0781 322.398 49.8047 323.43 49.8047C324.055 49.8047 324.633 49.9453 325.164 50.2266C325.695 50.5078 326.156 50.8516 326.547 51.2578C326.953 51.6484 327.289 52.0703 327.555 52.5234C327.82 52.9609 328 53.3359 328.094 53.6484L328.375 51.375C328.406 51.0781 328.547 50.8281 328.797 50.625C329.062 50.4219 329.352 50.2656 329.664 50.1562C329.977 50.0312 330.281 49.9453 330.578 49.8984C330.875 49.8359 331.086 49.8047 331.211 49.8047C331.398 49.8047 331.523 49.8359 331.586 49.8984C331.648 49.9609 331.68 50.0859 331.68 50.2734C331.68 50.5078 331.609 50.9844 331.469 51.7031C331.344 52.4062 331.203 53.3125 331.047 54.4219C330.906 55.5156 330.766 56.8047 330.625 58.2891C330.5 59.7734 330.438 61.4062 330.438 63.1875ZM327.859 57C327.859 56.2812 327.75 55.5781 327.531 54.8906C327.312 54.1875 327.016 53.5703 326.641 53.0391C326.266 52.4922 325.828 52.0547 325.328 51.7266C324.844 51.3984 324.328 51.2344 323.781 51.2344C323.109 51.2344 322.477 51.4297 321.883 51.8203C321.305 52.1953 320.797 52.7344 320.359 53.4375C319.938 54.125 319.602 54.9609 319.352 55.9453C319.102 56.9141 318.977 57.9844 318.977 59.1562C318.977 61.5 319.344 63.2891 320.078 64.5234C320.812 65.7422 321.789 66.3516 323.008 66.3516C323.539 66.3516 324.086 66.1406 324.648 65.7188C325.227 65.2812 325.75 64.6641 326.219 63.8672C326.703 63.0547 327.094 62.0703 327.391 60.9141C327.703 59.7578 327.859 58.4531 327.859 57ZM337.914 58.6875L337.68 59.1562L337.445 59.6484L336.484 58.9219L336.719 58.4297C337.109 57.6328 337.43 56.8359 337.68 56.0391C337.945 55.2266 338.156 54.4688 338.312 53.7656C338.484 53.0625 338.625 52.4453 338.734 51.9141C338.844 51.3828 338.953 51 339.062 50.7656C339.156 50.5781 339.289 50.4297 339.461 50.3203C339.648 50.1953 339.836 50.0938 340.023 50.0156C340.227 49.9375 340.414 49.8828 340.586 49.8516C340.773 49.8203 340.906 49.8047 340.984 49.8047C341.328 49.8047 341.555 49.875 341.664 50.0156C341.789 50.1562 341.852 50.4062 341.852 50.7656C341.852 50.9375 341.812 51.3672 341.734 52.0547C341.672 52.7266 341.594 53.5781 341.5 54.6094C341.422 55.625 341.344 56.7734 341.266 58.0547C341.203 59.3203 341.172 60.6328 341.172 61.9922C341.172 62.9766 341.219 63.7578 341.312 64.3359C341.406 64.8984 341.523 65.3203 341.664 65.6016C341.82 65.8828 341.984 66.0625 342.156 66.1406C342.344 66.2188 342.531 66.2578 342.719 66.2578C342.969 66.2578 343.25 66.1484 343.562 65.9297C343.875 65.7109 344.242 65.3281 344.664 64.7812C345.086 64.2188 345.57 63.4688 346.117 62.5312C346.664 61.5781 347.305 60.375 348.039 58.9219L348.297 58.4297L349.258 59.1562L349 59.6484C348.406 60.8047 347.812 61.9453 347.219 63.0703C346.641 64.1953 346.047 65.1953 345.438 66.0703C344.844 66.9453 344.242 67.6562 343.633 68.2031C343.023 68.7344 342.414 69 341.805 69C341.164 69 340.609 68.875 340.141 68.625C339.688 68.3594 339.305 67.9297 338.992 67.3359C338.695 66.7422 338.469 65.9609 338.312 64.9922C338.172 64.0078 338.102 62.7969 338.102 61.3594C338.102 60.9531 338.102 60.5312 338.102 60.0938C338.102 59.6406 338.117 59.1719 338.148 58.6875H337.914ZM342.719 45C342.719 45.5469 342.531 46.0078 342.156 46.3828C341.797 46.7422 341.344 46.9219 340.797 46.9219C340.266 46.9219 339.812 46.7422 339.438 46.3828C339.062 46.0078 338.875 45.5469 338.875 45C338.875 44.4688 339.062 44.0156 339.438 43.6406C339.812 43.2656 340.266 43.0781 340.797 43.0781C341.344 43.0781 341.797 43.2656 342.156 43.6406C342.531 44.0156 342.719 44.4688 342.719 45ZM348.062 58.9219L348.297 58.4297C348.531 57.9609 348.742 57.4766 348.93 56.9766C349.133 56.4766 349.305 56.0078 349.445 55.5703C349.586 55.1172 349.695 54.7188 349.773 54.375C349.852 54.0156 349.906 53.7422 349.938 53.5547C349.531 53.5078 349.141 53.4062 348.766 53.25C348.391 53.0938 348.062 52.8828 347.781 52.6172C347.5 52.3516 347.281 52.0391 347.125 51.6797C346.953 51.3203 346.867 50.9141 346.867 50.4609C346.867 50.1016 346.93 49.7812 347.055 49.5C347.18 49.2188 347.352 48.9844 347.57 48.7969C347.773 48.6094 348.008 48.4688 348.273 48.375C348.523 48.2656 348.789 48.2109 349.07 48.2109C349.445 48.2109 349.773 48.2891 350.055 48.4453C350.336 48.6016 350.57 48.8125 350.758 49.0781C350.945 49.3281 351.086 49.625 351.18 49.9688C351.273 50.2969 351.32 50.6406 351.32 51C351.758 51 352.227 50.9375 352.727 50.8125C353.242 50.6875 353.758 50.5547 354.273 50.4141C354.789 50.2578 355.297 50.1172 355.797 49.9922C356.297 49.8672 356.758 49.8047 357.18 49.8047C357.539 49.8047 357.828 49.8828 358.047 50.0391C358.266 50.1797 358.375 50.4219 358.375 50.7656C358.375 51.0156 358.297 51.4297 358.141 52.0078C358 52.5859 357.82 53.2578 357.602 54.0234C357.383 54.7891 357.141 55.625 356.875 56.5312C356.625 57.4219 356.391 58.3281 356.172 59.25C355.953 60.1562 355.766 61.0391 355.609 61.8984C355.469 62.7578 355.398 63.5234 355.398 64.1953C355.398 65.0391 355.492 65.6094 355.68 65.9062C355.867 66.2031 356.203 66.3516 356.688 66.3516C356.891 66.3516 357.141 66.2656 357.438 66.0938C357.75 65.9062 358.125 65.5547 358.562 65.0391C359 64.5078 359.516 63.7578 360.109 62.7891C360.719 61.8047 361.422 60.5156 362.219 58.9219L362.453 58.4297L363.414 59.1562L363.18 59.6484C362.242 61.5234 361.406 63.0625 360.672 64.2656C359.938 65.4688 359.258 66.4219 358.633 67.125C358.023 67.8281 357.445 68.3203 356.898 68.6016C356.352 68.8672 355.805 69 355.258 69C354.336 69 353.586 68.6484 353.008 67.9453C352.43 67.2422 352.141 66.1562 352.141 64.6875C352.141 63.8906 352.25 63.0625 352.469 62.2031C352.688 61.3438 352.961 60.4922 353.289 59.6484C353.617 58.7891 353.984 57.9453 354.391 57.1172C354.797 56.2891 355.18 55.5078 355.539 54.7734C355.914 54.0234 356.25 53.3281 356.547 52.6875C356.844 52.0469 357.055 51.4844 357.18 51L357.039 50.8594C356.789 50.8594 356.453 50.9922 356.031 51.2578C355.609 51.5234 355.133 51.8281 354.602 52.1719C354.086 52.5 353.531 52.8125 352.938 53.1094C352.344 53.4062 351.742 53.5859 351.133 53.6484C351.102 53.8672 351.031 54.1875 350.922 54.6094C350.828 55.0312 350.695 55.5 350.523 56.0156C350.352 56.5312 350.156 57.0625 349.938 57.6094C349.719 58.1562 349.492 58.6719 349.258 59.1562L349.023 59.6484L348.062 58.9219ZM349.211 49.5234C349.07 49.5234 348.953 49.5703 348.859 49.6641C348.766 49.7578 348.719 49.8672 348.719 49.9922C348.719 50.1797 348.766 50.3438 348.859 50.4844C348.953 50.6094 349.07 50.7188 349.211 50.8125C349.352 50.8906 349.492 50.9531 349.633 51C349.789 51.0312 349.922 51.0469 350.031 51.0469C350.031 50.6094 349.961 50.25 349.82 49.9688C349.68 49.6719 349.477 49.5234 349.211 49.5234Z" fill="#4185A8"/>
</svg>
